<?xml version="1.0" encoding="UTF-8" standalone="no"?>
<svg
 xmlns:dc="http://purl.org/dc/elements/1.1/"
 xmlns:cc="http://creativecommons.org/ns#"
 xmlns:rdf="http://www.w3.org/1999/02/22-rdf-syntax-ns#"
 xmlns:svg="http://www.w3.org/2000/svg"
 xmlns="http://www.w3.org/2000/svg"
 width="121.58812mm"
 height="110.12659mm"
 viewBox="0 0 121.58812 110.1266"
 version="1.1"
 id="svg6069">
<defs
 id="defs6063" />
<metadata
 id="metadata6066">
<rdf:RDF>
<cc:Work
 rdf:about="">
<dc:format>image/svg+xml</dc:format>
<dc:type
 rdf:resource="http://purl.org/dc/dcmitype/StillImage" />
<dc:title></dc:title>
</cc:Work>
</rdf:RDF>
</metadata>
<g
 transform="matrix(1,0,0,1.256798,-16.014723,-97.096241)"
 id="layer1">
<path
 id="path3779"
 style="fill:#800080;stroke-width:0.08696186"
 d="m 24.746162,105.16779 c -1.070068,-0.029 -2.754924,0.75829 -4.272608,2.0128 -0.794343,0.65669 -2.941037,3.38481 -3.404443,4.32686 -0.907698,1.84524 -1.256479,3.62071 -0.939995,4.78421 l 0.13901,0.51211 29.788877,23.75359 c 16.383732,13.06432 29.85337,23.77355 29.932541,23.79855 v -0.001 c 0.08182,0.0295 0.141359,0.0201 0.137459,-0.0109 -0.0036,-0.0314 -1.389054,-1.16586 -3.078882,-2.52078 l -3.072164,-2.46341 2.406573,1.8588 c 2.62758,2.02974 2.570477,2.0121 1.196308,0.37672 -0.386728,-0.46025 -0.577588,-0.73686 -0.464571,-0.67386 0.354256,0.19828 -5.167609,-6.35052 -23.070943,-27.36211 -18.87383,-22.15049 -21.991172,-25.76938 -22.327836,-25.91836 -0.0902,-0.0395 -0.15299,-0.11853 -0.11162,-0.13953 0.02904,-0.0369 -0.03506,-0.1129 -0.142626,-0.1695 -0.107651,-0.0564 -0.186185,-0.14314 -0.149347,-0.16174 0.02574,-0.0327 -0.01789,-0.11904 -0.09715,-0.19224 -0.07934,-0.073 -0.302366,-0.34279 -0.495062,-0.59996 -0.490667,-0.65443 -1.161746,-1.10831 -1.767851,-1.19321 -0.06564,-0.009 -0.134334,-0.0151 -0.205671,-0.017 z m 2.079458,1.93322 c 0.01704,-0.001 0.02514,0.0364 0.01913,0.10077 l -5.3e-4,-5.3e-4 c -0.0084,0.0851 -0.02641,0.20326 -0.06873,0.22376 -0.02957,0.0377 -0.04686,-5.3e-4 -0.03876,-0.0863 0.0084,-0.0852 0.02643,-0.20266 0.06873,-0.22376 0.0074,-0.009 0.01447,-0.0136 0.02016,-0.0139 z m 45.87472,53.42412 c 0.0057,-0.002 0.01609,-1.9e-4 0.03152,0.004 0.06182,0.018 0.138266,0.0794 0.170016,0.1354 0.03163,0.0565 -0.01886,0.0413 -0.112138,-0.0331 -0.07883,-0.0682 -0.106503,-0.1015 -0.0894,-0.10646 z" />
<path
 id="path3781"
 style="fill:#800080;stroke-width:0.09054558"
 d="m 36.703053,92.205275 c -1.167162,0.04544 -2.17061,0.31604 -3.588927,0.967901 -0.736812,0.33858 -0.954175,0.489189 -2.57297,1.782318 -1.484537,1.185582 -1.842344,1.506017 -2.228286,1.997295 -1.360567,1.731791 -2.037919,3.236321 -2.031918,4.512391 l 0.0026,0.56947 24.806236,31.15417 c 13.643548,17.1348 24.8444,31.15947 24.890991,31.16347 l 5.29e-4,10e-4 c 0.0462,0.004 0.08755,-0.0173 0.09095,-0.0486 0.0035,-0.0313 -0.849426,-1.13657 -1.894459,-2.4567 -1.861759,-2.35048 -1.872855,-2.36616 -0.5364,-0.76584 l 1.364774,1.634 -0.321943,-0.67024 c -0.405402,-0.8442 -0.420555,-0.88787 -0.23405,-0.68321 0.352814,0.38715 -6.349971,-12.61227 -19.009694,-36.867 C 42.785094,100.24944 40.360857,95.664813 40.117909,95.521893 c -0.05908,-0.03471 -0.09033,-0.111633 -0.06925,-0.170532 0.02114,-0.05918 -0.04315,-0.169881 -0.142629,-0.24598 -0.09938,-0.07601 -0.152688,-0.160203 -0.118337,-0.188103 0.03432,-0.02746 -0.128707,-0.41238 -0.362252,-0.85576 -0.763749,-1.449801 -1.433218,-1.906419 -2.722316,-1.856219 z m 2.591575,2.546099 c 0.03913,0.0043 0.03148,0.07593 -0.01706,0.158131 -0.0695,0.122039 -0.08473,0.120194 -0.07131,-0.0052 0.0099,-0.08641 0.04922,-0.152863 0.08837,-0.149862 z m 34.607706,65.711746 c 0.0056,-0.002 0.01537,0.001 0.02997,0.009 v 5.3e-4 c 0.0585,0.0329 0.121936,0.11194 0.141076,0.17673 0.01915,0.064 -0.02836,0.0378 -0.105937,-0.0599 -0.05854,-0.0741 -0.08185,-0.12145 -0.06511,-0.1266 z m 0.211357,0.41083 c 0.0056,-0.002 0.01537,0.001 0.02997,0.009 v 5.3e-4 c 0.05849,0.0329 0.121936,0.11203 0.141076,0.17673 0.01916,0.0641 -0.02836,0.0373 -0.105937,-0.0605 -0.05854,-0.0739 -0.08185,-0.12089 -0.06511,-0.12609 z" />
<path
 id="path3783"
 style="fill:#800080;stroke-width:0.09433652"
 d="m 51.306813,81.875156 c -0.401915,0.005 -0.832565,0.03845 -1.290362,0.100769 -1.53388,0.208831 -1.997242,0.36874 -4.297411,1.485699 -2.084398,1.012349 -2.136301,1.043678 -2.986381,1.768367 -1.480697,1.262301 -2.426817,2.583158 -2.689241,3.75481 l -0.129707,0.57826 17.990114,37.380139 c 9.894426,20.55911 18.027654,37.39301 18.073834,37.40961 0.04595,0.016 0.09278,0.003 0.104386,-0.0305 0.01156,-0.0329 -0.442346,-1.02768 -1.00924,-2.2102 -0.874328,-1.82412 -0.930571,-1.96015 -0.368972,-0.89814 l 0.661977,1.2516 -0.176733,-0.79064 c -0.125151,-0.55947 -0.136451,-0.7539 -0.03824,-0.6625 0.12346,0.1146 0.131498,0.11248 0.0739,-0.0212 -0.03574,-0.0827 -0.46564,-1.76034 -0.955495,-3.72793 -1.391184,-5.58785 -7.785817,-30.09192 -13.635351,-52.25054 -3.979479,-15.074684 -4.935503,-18.589638 -5.218287,-19.186427 -0.08321,-0.175882 -0.124574,-0.332508 -0.09198,-0.347782 0.09246,-0.04451 -0.347065,-1.601287 -0.599964,-2.124937 -0.478179,-0.990444 -1.675215,-1.500371 -3.416845,-1.478463 z" />
<path
 id="path3785"
 style="fill:#800080;stroke-width:0.09485891"
 d="m 67.698061,77.261484 c -0.873144,0.02729 -1.816119,0.175139 -3.001367,0.44907 -2.546573,0.588539 -3.851202,1.155403 -5.316989,2.310453 -0.853527,0.67261 -1.379982,1.282718 -1.708425,1.980758 l -0.254246,0.541567 9.242331,40.880708 c 5.083471,22.4845 9.276884,40.90287 9.318294,40.92877 0.168781,0.10696 0.133877,-0.14997 -0.246496,-1.81333 -0.264695,-1.1577 -0.319209,-1.47931 -0.163814,-0.9617 l 0.233061,0.77773 0.0072,-0.77049 c 0.0042,-0.44097 0.04752,-0.72958 0.101285,-0.67438 0.05614,0.0577 0.08699,-0.0528 0.07648,-0.27595 -0.0097,-0.20488 -0.05879,-2.16835 -0.109037,-4.36304 -0.196729,-8.59344 -1.331736,-44.43422 -2.00192,-63.220431 -0.208233,-5.836419 -0.430462,-10.743014 -0.493512,-10.886675 -0.01445,-0.03228 -0.01482,-0.127354 -0.0016,-0.211354 0.05911,-0.359251 -0.02432,-1.694797 -0.137459,-2.195216 -0.254913,-1.127509 -1.161339,-1.807298 -2.962093,-2.222088 -0.905338,-0.208549 -1.70861,-0.301691 -2.581754,-0.274402 z" />
<path
 id="path3787"
 style="fill:#800080;stroke-width:0.09485529"
 d="m 84.011793,77.330215 c -0.897387,2.15e-4 -1.804913,0.03178 -2.337324,0.09354 -1.12567,0.13108 -2.31177,0.494527 -3.467489,1.062466 -0.79875,0.39252 -1.098195,0.603583 -1.627291,1.146183 l -0.648538,0.665075 -0.01188,41.992271 c -0.0065,23.09565 0.02048,42.02367 0.0584,42.06307 l 0.0057,-0.006 c 0.06394,0.0646 0.29419,-0.84358 0.301791,-1.18391 0.0019,-0.12024 -0.0081,-0.11997 -0.08888,0.007 -0.05758,0.0975 -0.0868,-0.13008 -0.0801,-0.7152 0.0092,-0.62443 0.02836,-0.7545 0.07286,-0.47698 l 0.05994,0.38138 0.132291,-0.56121 c 0.103114,-0.43916 0.148683,-0.52234 0.210323,-0.38189 0.05327,0.12302 0.06158,0.0805 0.02946,-0.13487 -0.03031,-0.19265 -0.01228,-0.29243 0.04392,-0.25683 0.05028,0.0324 0.09266,0.0208 0.09199,-0.0258 6.9e-5,-0.0467 0.38162,-1.9787 0.848011,-4.29277 2.905689,-14.41746 12.64071,-65.097525 13.700456,-71.323295 0.1607,-0.944319 0.37561,-2.113412 0.477491,-2.597774 0.365555,-1.739385 0.201588,-2.549753 -0.687312,-3.394073 -0.907719,-0.86211 -3.071032,-1.746541 -4.808492,-1.965772 -0.490726,-0.06351 -1.377924,-0.09478 -2.275314,-0.09457 z" />
<path
 id="path3787-3"
 style="fill:#800080;stroke-width:0.09433652"
 d="m 99.963273,81.813146 c -0.88126,-0.01696 -1.811165,0.08352 -2.750219,0.298691 -0.865338,0.198289 -1.204206,0.334179 -1.840198,0.737938 l -0.779796,0.49506 -9.336381,40.471945 c -5.119341,22.19321 -9.283483,40.38246 -9.27902,40.53603 0.0495,0.0726 0.475155,-0.74746 0.556554,-1.07332 0.02659,-0.0954 0.01651,-0.0974 -0.0894,0.007 -0.07826,0.0809 -0.05549,-0.1451 0.08113,-0.70745 0.146701,-0.60001 0.196434,-0.72076 0.176733,-0.44339 l -0.02532,0.38138 0.253214,-0.51107 c 0.198083,-0.39993 0.261395,-0.46959 0.289904,-0.3204 0.0241,0.13052 0.04239,0.0917 0.05995,-0.12298 0.01458,-0.19342 0.05305,-0.28592 0.100766,-0.23772 0.04278,0.0357 0.09222,0.0363 0.09612,-0.01 0.01042,-0.045 0.810979,-1.8207 1.779219,-3.94601 6.03235,-13.24159 26.770921,-59.896025 29.185811,-65.658004 0.36626,-0.873972 0.83485,-1.952466 1.0418,-2.396236 0.74287,-1.594191 0.76274,-2.412616 0.0842,-3.426666 -0.69292,-1.035593 -2.60373,-2.375671 -4.2478,-2.978622 -0.92803,-0.34322 -3.42876,-0.921115 -4.49378,-1.040246 -0.28145,-0.03184 -0.56976,-0.05068 -0.863517,-0.05633 z M 75.977659,164.35281 h -5.29e-4 l -0.0036,0.0202 c -8.7e-5,-1.4e-4 0.0042,-0.0197 0.0041,-0.0202 z" />
<path
 id="path3787-3-6"
 style="fill:#800080;stroke-width:0.09433652"
 d="m 114.90138,88.879381 c -0.88781,0.0016 -1.24845,0.05929 -1.95802,0.312126 l -0.86971,0.310057 -18.071251,37.397196 c -9.93866,20.56891 -18.056379,37.43987 -18.037659,37.49177 l 0.0088,-0.0176 c 0.02977,0.0854 0.628954,-0.62254 0.78083,-0.92294 0.04528,-0.0671 0.03608,-0.0721 -0.09043,0.007 -0.09411,0.0616 -0.02217,-0.15368 0.235643,-0.67179 0.276897,-0.55251 0.351605,-0.65935 0.270786,-0.39326 l -0.109038,0.36639 0.360701,-0.44235 c 0.28207,-0.34662 0.357352,-0.40049 0.352952,-0.24857 -0.0058,0.13251 0.02127,0.0991 0.08578,-0.10645 0.05627,-0.18449 0.114959,-0.26619 0.150379,-0.20929 0.03508,0.0229 0.0848,0.0357 0.09767,-0.0103 0.02013,-0.0416 1.194623,-1.5956 2.609662,-3.45354 8.816084,-11.57606 39.375235,-52.47653 43.006675,-57.5603 0.55076,-0.771143 1.24657,-1.718899 1.54667,-2.105818 1.07759,-1.389991 1.27875,-2.183625 0.84181,-3.322796 -0.44628,-1.16336 -2.01338,-2.893579 -3.48299,-3.845759 -0.82893,-0.54034 -3.13901,-1.658064 -4.15116,-2.010214 -1.06978,-0.37224 -2.29358,-0.56679 -3.57808,-0.56379 z" />
<path
 id="path3787-3-6-7"
 style="fill:#800080;stroke-width:0.09135543"
 d="m 127.29132,100.62027 c -0.10492,-0.003 -0.20962,-0.002 -0.31988,0.004 -0.14702,0.008 -0.3039,0.0235 -0.48369,0.046 l -0.8816,0.11007 -24.82639,31.75723 c -13.654231,17.46668 -24.821521,31.80078 -24.81502,31.85338 l 0.01138,-0.0129 c 0.01,0.0875 0.721344,-0.45946 0.927073,-0.71314 0.05765,-0.059 0.05006,-0.065 -0.08526,-0.017 -0.101264,0.0386 0.0118,-0.15072 0.362767,-0.58911 0.375682,-0.46721 0.468249,-0.55286 0.336415,-0.31677 l -0.1788,0.32556 0.43098,-0.34468 c 0.337635,-0.26995 0.420246,-0.30485 0.383955,-0.16123 -0.03332,0.12497 -0.0011,0.0988 0.102839,-0.0832 0.09155,-0.15921 0.163779,-0.22964 0.184999,-0.16744 0.02727,0.0325 0.07136,0.0547 0.09302,0.0145 0.02763,-0.0353 1.456675,-1.2657 3.175516,-2.73368 10.709024,-9.1464 47.992676,-41.58733 52.470186,-45.65509 0.67908,-0.61703 1.53141,-1.37131 1.89445,-1.67587 1.30374,-1.09424 1.65924,-1.80693 1.4888,-2.98379 -0.1741,-1.20184 -1.28032,-3.18073 -2.45928,-4.3987 -0.6643,-0.69008 -2.59734,-2.24426 -3.47317,-2.79415 -0.92565,-0.58126 -2.03368,-1.02486 -3.2396,-1.29552 -0.46885,-0.10533 -0.78492,-0.1579 -1.09967,-0.16795 z" />
<path
 id="path3834-3-5"
 style="fill:#800080;stroke-width:1.30076432"
 d="m 39.908544,136.90384 c 0.09435,7.1247 -1.240774,13.8836 3.664374,16.16595 5.29e-4,2.6e-4 0.0011,7.9e-4 0.0016,10e-4 13.345359,10.07447 24.942203,4.67 32.159576,11.47813 0.02903,0.008 0.0687,0.0203 0.09095,0.0274 2.64e-4,1.2e-4 0.0028,5.3e-4 0.0031,5.3e-4 -0.03503,-0.0445 -0.02904,-0.095 0.0031,-0.13177 0.01016,-0.0194 0.0293,-0.0312 0.04857,-0.047 0.0019,-5.3e-4 0.0038,-0.001 0.0057,-0.002 0.0011,-5.3e-4 0.0013,-0.001 0.01447,-0.0145 0.04612,-0.0468 -5.29e-4,-0.005 0.06149,-0.0568 0.01299,-0.006 0.02543,-0.0119 0.03876,-0.0165 0.0069,-0.002 0.01407,-0.003 0.02119,-0.005 0.01116,-0.002 0.02233,-0.006 0.03359,-0.008 0.01304,-0.003 0.02619,-0.003 0.03927,-0.004 0.0019,-0.005 0.0019,-0.008 0.0062,-0.0191 0.01246,-0.0301 0.02265,-0.054 0.05374,-0.0687 0.0077,-0.002 0.01545,-0.005 0.02326,-0.007 -0.0013,-0.002 -0.0033,-0.003 -0.0047,-0.005 -7.94e-4,-0.001 0.0059,0.008 0.0036,10e-4 -0.0062,-0.005 -0.01236,-0.009 -0.0186,-0.0139 -5.3e-4,2.6e-4 -0.0011,7.9e-4 -0.0016,10e-4 -0.0059,-0.005 -0.01146,-0.0106 -0.01757,-0.0155 -0.0037,-0.003 -0.0082,-0.006 -0.01188,-0.008 -0.01074,-0.009 -0.01974,-0.0187 -0.02997,-0.0279 l -0.0016,-10e-4 c -0.0019,-5.3e-4 -0.0032,-0.001 -0.0052,-0.002 0.0028,0.005 0.0074,0.009 0.01035,0.0145 0.0035,0.006 -0.0098,-0.0111 -0.01447,-0.015 -0.007,2.6e-4 -0.0092,7.9e-4 -0.02585,5.2e-4 -2.62e-4,-5e-5 -0.01042,-0.004 -0.02119,-0.006 -0.0011,5.3e-4 -0.0079,-5.3e-4 -0.01188,-0.001 -0.0073,-0.001 -0.01453,-0.003 -0.0217,-0.005 -0.0029,-7.9e-4 -0.0055,-0.002 -0.0083,-0.003 -0.01019,-0.004 -0.02109,-0.008 -0.031,-0.0129 -0.0083,-0.004 -0.01865,-0.0168 -0.02635,-0.0264 -0.02957,-0.006 -0.0462,-0.0187 -0.06201,-0.0501 -2.65e-4,-5.2e-4 2.3e-4,-0.002 0,-0.003 -0.01376,-0.007 -0.03172,-0.014 -0.02842,-0.0212 0.0061,-0.004 0.0013,-5.2e-4 -0.01138,-0.0109 -0.0062,-0.005 -0.0127,-0.0102 -0.0186,-0.0155 -0.0024,-0.002 -0.0052,-0.005 -0.0067,-0.008 -5.29e-4,-0.001 0.0031,1.8e-4 0.0031,-0.001 -7.1e-5,-0.001 -0.0021,-0.001 -0.0031,-0.002 -0.0073,-0.004 -0.01521,-0.007 -0.02222,-0.0103 -0.0037,-0.002 -0.0065,-0.005 -0.0098,-0.008 -0.02241,-0.0178 -0.0491,-0.0415 -0.04754,-0.0739 7.94e-4,-0.0143 0.0088,-0.0274 0.01447,-0.0408 z m 35.867529,26.97721 c -0.0037,-0.004 0.0024,0.007 0.0062,0.0139 0.0013,-2.3e-4 0.0024,-7.9e-4 0.0036,-0.001 -0.0046,-0.005 -7.94e-4,-0.004 -0.0098,-0.0129 z m 0.05839,0.0501 c 5.29e-4,5.3e-4 7.93e-4,0.001 0.0016,0.002 7.94e-4,5.3e-4 0.0019,10e-6 0.0031,5.3e-4 -0.0011,-7.9e-4 -0.0021,-0.002 -0.0031,-0.002 -2.64e-4,-8e-5 -7.94e-4,-5.3e-4 -0.0011,-5.3e-4 z m 0.01188,0.004 5.29e-4,5.3e-4 c 0.0026,2.1e-4 0.0089,0.002 0.0067,0.001 -0.0024,-7.9e-4 -0.0048,-7.9e-4 -0.0072,-0.002 z m 0.03101,0.076 0.0021,0.003 c 2.06e-4,2.2e-4 0.0019,-7.9e-4 0.0016,-0.001 -2.64e-4,-2.6e-4 -0.0026,-0.001 -0.0031,-0.002 z m 0.175699,0.0832 c -0.0013,0.002 -0.003,0.004 -0.0041,0.006 -0.0013,0.002 0.0035,-0.002 0.0062,-0.005 -5.29e-4,-5.3e-4 -0.0016,-5.3e-4 -0.0021,-0.001 z m 0.186037,0.34004 c 0.01871,0.008 0.03221,0.0148 0.01034,0.002 -0.0026,-8e-4 -0.0051,-0.002 -0.0078,-0.002 -7.94e-4,-1.2e-4 -0.0011,2e-5 -0.0026,0 z" />
<path
 id="path3834-3-5-2"
 style="fill:#800080;stroke-width:1.30076432"
 d="m 110.7659,135.72906 c 0.20404,7.1224 1.82105,13.81948 -2.98421,16.30523 -5.3e-4,2.6e-4 -10e-4,7.9e-4 -0.002,0.001 -12.911791,10.62447 -24.724759,5.71038 -31.650704,12.81477 -0.02867,0.008 -0.06779,0.0227 -0.08972,0.031 -2.59e-4,1.1e-4 -0.0028,5.2e-4 -0.0031,5.2e-4 0.0331,-0.0457 0.02506,-0.0962 -0.0091,-0.13152 -0.01101,-0.0194 -0.03061,-0.03 -0.05049,-0.0446 -0.0019,-5.3e-4 -0.0038,-7.9e-4 -0.0057,-0.002 -0.0011,-5.3e-4 -0.0013,-0.001 -0.01508,-0.0138 -0.04803,-0.0444 2.64e-4,-0.005 -0.06381,-0.0544 -0.01323,-0.006 -0.0259,-0.0107 -0.03943,-0.0153 -0.0069,-0.002 -0.01421,-0.003 -0.02143,-0.005 -0.01127,-0.002 -0.02257,-0.006 -0.03395,-0.008 -0.01315,-0.003 -0.0263,-0.003 -0.03939,-0.004 -0.0019,-0.005 -0.0019,-0.008 -0.0074,-0.0191 -0.01368,-0.0298 -0.0249,-0.0528 -0.05656,-0.0663 -0.0077,-0.002 -0.01569,-0.005 -0.02352,-0.007 0.0013,-0.002 0.0033,-0.003 0.0047,-0.005 7.94e-4,-0.001 -0.0059,0.008 -0.0036,0.001 0.0062,-0.005 0.01199,-0.009 0.01799,-0.0151 5.29e-4,2.5e-4 0.0011,8e-4 0.0016,0.001 0.0059,-0.005 0.01098,-0.0106 0.01685,-0.0167 0.0037,-0.003 0.0082,-0.006 0.01151,-0.008 0.01037,-0.009 0.01889,-0.0199 0.02877,-0.0291 l 0.0016,-0.001 c 0.0019,-5.3e-4 0.0032,-0.001 0.0052,-0.002 -0.0028,0.005 -0.0074,0.009 -0.0095,0.0145 -0.0035,0.006 0.0098,-0.0111 0.01386,-0.0156 0.007,-4e-5 0.0092,5.3e-4 0.02585,-5.3e-4 2.59e-4,-6e-5 0.01029,-0.004 0.02096,-0.006 0.0011,5.3e-4 0.0079,-7.9e-4 0.01188,-0.001 0.0073,-0.001 0.01442,-0.003 0.02146,-0.005 0.0029,-7.9e-4 0.0055,-0.002 0.0083,-0.003 0.01008,-0.004 0.02074,-0.008 0.03041,-0.0141 0.0083,-0.004 0.01794,-0.018 0.02524,-0.0276 0.02933,-0.006 0.04536,-0.0211 0.05985,-0.0525 2.41e-4,-5.3e-4 -2.64e-4,-0.002 -1.24e-4,-0.003 0.01347,-0.007 0.03111,-0.0152 0.02748,-0.0224 -0.0061,-0.004 -0.0013,-5.3e-4 0.0109,-0.0109 0.0062,-0.005 0.01222,-0.0105 0.01791,-0.0167 0.0024,-0.002 0.0052,-0.005 0.0067,-0.008 5.3e-4,-0.001 -0.0031,2.7e-4 -0.0031,-7.9e-4 3.2e-5,-10e-4 0.0021,-10e-4 0.0031,-0.002 0.0073,-0.004 0.01492,-0.007 0.02175,-0.0115 0.0037,-0.002 0.0065,-0.005 0.0098,-0.008 0.02167,-0.019 0.04732,-0.0439 0.0444,-0.0762 -0.0013,-0.0143 -0.01,-0.0274 -0.01614,-0.0401 z M 76.059519,164.1846 c 0.0037,-0.004 -0.0024,0.007 -0.0062,0.0139 -0.0013,-1.8e-4 -0.0024,-8e-4 -0.0036,-8e-4 0.0046,-0.005 5.29e-4,-0.005 0.0098,-0.0129 z m -0.05624,0.0525 c -5.29e-4,5.3e-4 -7.94e-4,0.001 -0.0016,0.002 -7.93e-4,5.3e-4 -0.0019,6e-5 -0.0031,5.3e-4 0.0011,-8e-4 0.0021,-0.002 0.0031,-0.002 2.6e-4,-1e-4 7.94e-4,-5.3e-4 0.0011,-5.3e-4 z m -0.01175,0.004 -5.29e-4,5.3e-4 c -0.0026,2.6e-4 -0.0089,0.002 -0.0067,0.001 0.0024,-8e-4 0.0048,-0.001 0.0072,-0.002 z m -0.02777,0.0772 -0.0021,0.003 c -1.93e-4,2.6e-4 -0.0019,-8e-4 -0.0016,-0.001 2.54e-4,-2.6e-4 0.0026,-0.001 0.0031,-0.002 z m -0.172064,0.0904 c 0.0013,0.002 0.003,0.004 0.0041,0.006 0.0013,0.002 -0.0035,-0.002 -0.0062,-0.005 5.29e-4,-5.3e-4 0.0016,-5.3e-4 0.0021,-10e-4 z m -0.171635,0.34752 c -0.01834,0.008 -0.03159,0.016 -0.01024,0.002 0.0026,-8e-4 0.0051,-0.002 0.0078,-0.002 7.94e-4,-1.7e-4 0.0011,-4e-5 0.0026,-1.3e-4 z" />
<path
 style="fill:#ffffff;stroke:#ffffff;stroke-width:0.02104592;stroke-opacity:1"
 d="m 43.403939,153.25548 c -0.282975,-0.10144 -0.860745,-0.27534 -0.94988,-0.2859 -0.08766,-0.0104 -0.09943,-0.007 -0.112675,0.035 -0.0081,0.0256 -0.0093,0.0813 -0.0027,0.12368 0.0091,0.0579 -0.01148,0.0277 -0.08243,-0.12085 -0.05198,-0.10887 -0.09049,-0.20196 -0.08558,-0.20687 0.0084,-0.008 1.401981,0.47344 1.420923,0.49126 0.02291,0.0216 -0.08387,8e-4 -0.187658,-0.0363 z"
 id="path5397" />
</g>
</svg>
